<?xml version="1.0" standalone="no"?>
<!DOCTYPE svg PUBLIC "-//W3C//DTD SVG 20010904//EN"
 "http://www.w3.org/TR/2001/REC-SVG-20010904/DTD/svg10.dtd">
<svg version="1.0" xmlns="http://www.w3.org/2000/svg"
 width="256.000000pt" height="256.000000pt" viewBox="0 0 256.000000 256.000000"
 preserveAspectRatio="xMidYMid meet">
<metadata>
Created by potrace 1.10, written by Peter Selinger 2001-2011
</metadata>
<g transform="translate(0.000000,256.000000) scale(0.100000,-0.100000)"
fill="#000000" stroke="none">
<path d="M1041 2240 c-227 -32 -448 -175 -554 -360 -35 -59 -77 -153 -72 -158
2 -2 34 27 71 65 120 120 260 177 429 177 117 0 186 -18 293 -74 l72 -39 73
39 c106 56 175 74 292 74 169 0 309 -57 429 -177 37 -38 69 -67 71 -65 5 5
-37 99 -72 158 -91 159 -274 292 -473 345 -76 20 -451 30 -559 15z"/>
<path d="M783 1875 c-218 -59 -372 -241 -397 -470 -17 -149 73 -426 196 -607
21 -32 41 -58 43 -58 2 0 1 49 -2 110 -11 200 48 354 185 485 l46 45 -32 33
-32 33 13 59 13 59 46 -42 c45 -42 46 -42 121 -42 l77 0 -6 -32 c-4 -18 -10
-50 -14 -71 -9 -44 -12 -40 104 -132 82 -65 90 -83 59 -137 -35 -59 -130 -85
-192 -53 -16 8 -40 28 -55 45 -24 29 -26 39 -26 125 0 52 -4 96 -9 99 -14 9
-97 -70 -140 -134 -63 -95 -86 -176 -85 -300 1 -86 5 -117 25 -170 72 -190
218 -311 492 -405 l67 -24 68 24 c273 94 419 215 491 405 20 53 24 84 25 170
1 124 -22 205 -85 300 -43 64 -126 143 -140 134 -5 -3 -9 -47 -9 -99 0 -86 -2
-96 -26 -125 -34 -40 -74 -60 -120 -60 -45 0 -106 33 -127 70 -31 51 -22 70
59 135 116 92 113 88 104 132 -4 21 -10 53 -14 71 l-5 32 76 0 c75 0 76 0 121
42 l46 42 13 -59 13 -59 -31 -32 -32 -33 53 -53 c133 -132 188 -283 177 -484
-3 -57 -4 -104 -2 -104 2 0 22 26 43 58 123 181 213 458 196 607 -15 140 -75
259 -174 348 -92 83 -225 137 -334 137 l-49 0 20 -22 c32 -36 43 -63 43 -108
0 -92 -60 -135 -202 -146 -82 -6 -88 -8 -88 -29 0 -20 14 -112 25 -162 l5 -23
-140 0 c-130 0 -141 1 -136 18 11 41 27 164 23 176 -4 9 -34 16 -89 20 -138
12 -198 56 -198 146 0 45 11 72 43 108 l20 22 -54 -1 c-30 0 -78 -7 -106 -14z
m599 -917 c54 -18 98 -36 98 -41 0 -18 -43 -91 -77 -128 -20 -22 -56 -52 -80
-66 l-43 -25 -43 25 c-24 14 -60 44 -81 67 -35 39 -84 126 -75 133 5 6 181 65
193 66 6 1 54 -13 108 -31z"/>
</g>
</svg>
