<?xml version="1.0" standalone="no"?>
<!DOCTYPE svg PUBLIC "-//W3C//DTD SVG 20010904//EN"
 "http://www.w3.org/TR/2001/REC-SVG-20010904/DTD/svg10.dtd">
<svg version="1.0" xmlns="http://www.w3.org/2000/svg"
 width="256.000000pt" height="256.000000pt" viewBox="0 0 256.000000 256.000000"
 preserveAspectRatio="xMidYMid meet">
<metadata>
Created by potrace 1.10, written by Peter Selinger 2001-2011
</metadata>
<g transform="translate(0.000000,256.000000) scale(0.100000,-0.100000)"
fill="#000000" stroke="none">
<path d="M492 2539 c-83 -10 -124 -24 -200 -66 -181 -100 -288 -300 -273 -515
2 -38 21 -16 21 25 1 131 67 294 155 382 88 88 251 154 383 155 42 0 56 13 26
24 -18 7 -25 7 -112 -5z"/>
<path d="M1947 2543 c-30 -8 -8 -23 33 -23 68 0 193 -32 263 -66 141 -71 241
-217 266 -389 7 -44 15 -96 18 -115 l6 -35 8 29 c11 40 -7 185 -32 251 -60
161 -203 290 -365 329 -65 16 -169 26 -197 19z"/>
<path d="M989 2225 c-243 -48 -442 -212 -556 -457 -27 -59 -16 -62 22 -8 33
48 123 118 198 154 92 45 169 59 292 53 125 -5 206 -29 286 -82 l49 -34 49 34
c80 53 161 77 286 82 120 6 196 -8 290 -51 70 -32 166 -108 200 -156 63 -90
42 -20 -34 115 -41 73 -176 207 -254 254 -80 47 -166 80 -253 97 -98 18 -480
18 -575 -1z m508 -25 c128 -18 225 -52 323 -115 61 -39 153 -124 173 -160 9
-17 7 -17 -106 35 -157 71 -349 64 -524 -20 l-83 -39 -82 39 c-185 88 -370 91
-549 9 -38 -18 -72 -29 -76 -25 -11 11 97 115 167 160 98 64 198 99 324 115
91 12 344 12 433 1z"/>
<path d="M855 1883 c-216 -29 -395 -187 -450 -399 -31 -118 -11 -264 61 -450
32 -85 151 -300 161 -291 2 2 -1 24 -6 48 -26 112 -1 275 61 392 18 34 63 93
100 131 l67 70 -35 30 -35 31 12 55 c7 30 16 59 21 65 5 5 25 -8 51 -33 l43
-42 82 0 c80 0 82 -1 77 -22 -16 -70 -25 -114 -25 -123 0 -6 43 -44 96 -85 90
-71 95 -77 90 -107 -7 -47 -33 -80 -83 -104 -76 -37 -149 -15 -200 61 -20 28
-23 46 -23 121 0 49 -4 89 -9 89 -19 0 -123 -125 -152 -181 -46 -93 -62 -170
-56 -274 11 -206 116 -353 334 -467 48 -25 123 -58 165 -73 l78 -28 77 28
c105 36 241 109 311 165 190 152 246 424 133 649 -29 56 -133 181 -152 181 -5
0 -9 -40 -9 -89 0 -75 -3 -93 -22 -121 -52 -76 -125 -98 -201 -61 -50 24 -76
57 -83 104 -5 30 0 36 90 107 53 41 96 79 96 85 0 9 -9 53 -25 123 -5 21 -3
22 77 22 l82 0 43 42 c26 26 46 38 52 33 4 -6 13 -35 19 -65 l11 -55 -34 -31
-34 -30 67 -70 c37 -38 82 -97 100 -131 61 -116 89 -288 61 -386 -20 -73 -3
-60 59 42 101 170 172 383 172 521 0 140 -62 282 -167 380 -94 88 -187 129
-328 146 l-59 7 32 -32 c56 -57 57 -139 1 -197 -34 -35 -71 -46 -196 -59 -35
-4 -63 -8 -63 -8 0 -6 31 -162 36 -182 l6 -25 -152 0 -152 0 6 25 c5 20 36
176 36 182 0 1 -30 4 -67 8 -115 12 -156 24 -190 57 -56 54 -56 143 -2 198
l31 30 -29 -1 c-15 -1 -41 -4 -58 -6z m-10 -116 c0 -66 3 -78 29 -111 34 -45
89 -70 171 -80 75 -8 85 -18 73 -73 l-9 -43 -23 27 c-20 23 -34 28 -95 34 -60
5 -78 11 -111 38 -65 52 -93 38 -120 -61 -11 -43 -10 -51 8 -82 l21 -35 -48
-58 c-91 -108 -146 -231 -158 -351 -3 -29 -10 -55 -15 -58 -14 -9 -85 154
-113 257 -32 121 -34 258 -6 342 52 150 159 258 306 309 88 30 90 29 90 -55z
m1004 37 c120 -55 208 -150 256 -279 51 -134 26 -337 -66 -533 -39 -85 -59
-98 -59 -39 0 96 -69 258 -153 360 l-56 68 21 35 c18 31 19 39 8 82 -17 65
-36 92 -64 92 -12 0 -31 -10 -42 -21 -27 -31 -76 -49 -132 -49 -35 0 -57 -6
-76 -21 -31 -24 -33 -23 -45 19 -12 41 -2 48 85 60 86 12 124 31 161 79 25 32
28 45 28 111 l0 74 40 -7 c22 -3 64 -17 94 -31z m-714 -434 c22 -11 63 -15
145 -15 128 0 170 13 180 55 6 22 7 20 13 -15 8 -44 19 -30 -118 -152 -56 -50
-58 -53 -52 -93 6 -50 25 -80 74 -117 31 -24 45 -28 103 -28 56 0 73 4 108 27
50 34 74 76 82 143 7 68 25 65 77 -12 122 -182 103 -429 -44 -593 -73 -81
-229 -173 -365 -216 -57 -17 -59 -17 -127 5 -60 20 -113 44 -235 109 -16 8
-59 45 -96 81 -164 162 -194 402 -76 604 51 87 86 97 86 26 0 -55 33 -114 82
-146 35 -24 52 -28 108 -28 59 0 70 3 107 32 45 36 73 86 73 129 0 22 -13 40
-57 79 -135 120 -124 106 -116 150 6 35 7 37 13 15 3 -14 19 -32 35 -40z"/>
<path d="M1190 1004 c-36 -13 -72 -23 -81 -23 -25 -1 -59 -33 -64 -60 -11 -58
106 -206 195 -246 39 -17 41 -17 80 0 91 41 207 189 193 246 -9 38 -19 45 -96
69 -39 12 -82 26 -95 31 -33 13 -58 10 -132 -17z m197 -40 c49 -14 94 -28 101
-30 9 -3 6 -17 -13 -55 -33 -64 -96 -133 -152 -166 l-43 -25 -43 25 c-56 33
-119 102 -152 166 -19 38 -22 52 -13 55 7 2 56 17 108 34 52 16 101 28 107 26
7 -2 52 -15 100 -30z"/>
<path d="M2527 620 c-3 -14 -11 -63 -17 -109 -14 -105 -50 -197 -103 -264 -48
-61 -53 -66 -131 -118 -71 -47 -164 -77 -263 -86 -75 -6 -99 -17 -64 -28 30
-9 186 13 246 36 145 54 260 171 316 318 25 69 43 218 30 252 l-9 24 -5 -25z"/>
<path d="M15 611 c-9 -29 13 -186 35 -245 55 -144 171 -261 315 -315 69 -26
222 -45 255 -33 l25 10 -25 5 c-14 3 -65 10 -115 17 -255 32 -442 231 -462
492 -6 79 -16 105 -28 69z"/>
</g>
</svg>
